<?xml version="1.0" standalone="no"?>
<!DOCTYPE svg PUBLIC "-//W3C//DTD SVG 20010904//EN"
 "http://www.w3.org/TR/2001/REC-SVG-20010904/DTD/svg10.dtd">
<svg version="1.0" xmlns="http://www.w3.org/2000/svg"
 width="1200.000000pt" height="1200.000000pt" viewBox="0 0 300.000000 300.000000"
 preserveAspectRatio="xMidYMid meet">
<metadata>
Created by potrace 1.10, written by Peter Selinger 2001-2011
</metadata>
<g transform="translate(0.000000,300.000000) scale(0.100000,-0.100000)"
fill="#000000" stroke="none">
<path d="M773 2363 l-23 -4 0 -750 0 -749 750 0 750 0 0 755 0 755 -727 -1
c-401 -1 -738 -4 -750 -6z m1453 -750 l-1 -728 -725 0 -725 1 -2 714 c-1 393
0 721 2 728 3 9 158 12 728 12 l724 0 -1 -727z"/>
<path d="M1243 2147 c-10 -16 -14 -1047 -3 -1066 11 -20 56 -22 72 -4 10 13
14 117 16 492 1 262 4 481 6 488 6 15 190 10 263 -6 103 -24 173 -103 173
-196 0 -66 -32 -115 -110 -167 -70 -47 -83 -73 -51 -102 18 -17 21 -16 69 9
71 37 124 86 152 141 20 38 25 62 24 123 0 134 -65 219 -203 268 -57 21 -90
25 -233 28 -127 4 -169 2 -175 -8z m347 -26 c25 -7 52 -13 61 -15 32 -8 119
-68 140 -97 48 -68 56 -180 19 -268 -25 -56 -36 -68 -100 -102 -25 -13 -51
-30 -58 -36 -7 -7 -17 -13 -20 -13 -11 0 -32 39 -24 43 4 3 29 17 56 32 62 34
93 65 112 110 16 39 19 122 5 158 -16 40 -71 97 -116 118 -54 25 -84 30 -240
36 l-130 5 3 -503 2 -504 -22 0 -23 0 0 525 0 525 145 -2 c80 -1 165 -6 190
-12z"/>
<path d="M730 626 c0 -43 5 -78 11 -82 7 -4 10 17 7 70 -3 81 -1 84 46 67 18
-8 23 -15 19 -30 -3 -12 -9 -21 -14 -21 -5 0 -9 -5 -9 -12 0 -6 9 -3 20 7 11
10 20 24 20 31 0 19 -41 44 -72 44 l-28 0 0 -74z"/>
<path d="M1078 673 c-22 -5 -23 -17 -3 -33 8 -7 13 -16 10 -20 -3 -5 -1 -11 5
-15 6 -4 8 -10 5 -15 -3 -5 -1 -11 5 -15 15 -9 12 16 -5 49 -8 15 -15 30 -15
32 0 2 18 4 40 4 l40 0 -23 -47 c-24 -48 -34 -113 -16 -113 5 0 9 16 9 35 0
49 0 48 17 68 9 9 12 17 8 17 -5 0 -4 5 3 12 7 7 12 20 12 30 0 14 -8 18 -37
17 -21 -1 -46 -3 -55 -6z"/>
<path d="M1508 653 l-27 -27 -24 22 c-26 25 -37 28 -37 10 0 -6 3 -9 6 -5 3 3
17 -6 30 -20 l23 -25 26 27 25 28 0 -54 0 -54 -45 0 -45 0 0 43 c0 23 -5 42
-10 42 -6 0 -9 -20 -8 -45 1 -50 8 -55 76 -53 l42 0 0 69 c0 38 -1 69 -3 69
-1 0 -15 -12 -29 -27z"/>
<path d="M1648 669 c-21 -12 -34 -74 -19 -93 6 -7 8 -15 5 -19 -10 -9 35 -19
57 -12 17 6 20 3 17 -11 -2 -11 -15 -21 -33 -25 -28 -6 -28 -7 -4 -8 35 -1 49
17 48 64 -1 24 -4 31 -6 17 -4 -19 -10 -23 -36 -20 -31 3 -32 5 -32 48 0 44 1
45 35 48 33 2 34 1 16 -13 -21 -16 -10 -21 13 -6 12 8 12 12 2 25 -15 18 -38
20 -63 5z"/>
<path d="M1814 666 c-3 -7 -3 -40 -1 -72 l3 -59 2 63 c2 58 3 62 26 62 27 0
40 -22 23 -40 -9 -10 -9 -11 3 -8 26 8 23 43 -5 56 -34 15 -44 15 -51 -2z"/>
<path d="M2152 609 l2 -74 3 63 4 62 25 -27 c22 -26 25 -27 35 -10 17 29 29
19 29 -26 0 -43 0 -43 -34 -39 -19 2 -37 -1 -41 -8 -5 -8 7 -10 40 -8 l47 3 4
53 c5 68 -2 79 -32 51 l-24 -23 -30 29 -30 29 2 -75z"/>
<path d="M921 628 c-10 -24 -22 -54 -26 -68 -7 -24 -6 -24 8 -5 8 11 21 40 28
64 l13 43 13 -38 c7 -22 17 -46 22 -54 7 -13 3 -15 -25 -12 -20 3 -34 0 -34
-6 0 -6 18 -10 40 -10 36 0 40 3 34 20 -10 33 -45 108 -49 108 -3 0 -13 -19
-24 -42z"/>
<path d="M1271 640 c-12 -35 1 -41 17 -7 l11 22 0 -22 c1 -13 5 -23 10 -23 6
0 6 12 0 30 -6 17 -15 30 -19 30 -4 0 -13 -13 -19 -30z"/>
<path d="M1993 622 c-34 -73 -36 -82 -23 -82 6 0 9 4 5 9 -3 5 1 16 9 24 8 8
18 26 22 41 6 24 24 37 24 17 0 -5 5 -22 11 -38 14 -37 13 -38 -21 -35 -17 2
-30 -1 -30 -7 0 -6 18 -11 40 -11 46 0 48 7 20 65 -11 22 -19 46 -20 53 0 25
-16 11 -37 -36z"/>
<path d="M1253 588 c-16 -21 -23 -48 -13 -48 6 0 11 5 11 10 3 20 4 25 12 38
5 6 6 12 4 12 -3 0 -9 -6 -14 -12z"/>
<path d="M1320 581 c14 -27 14 -27 -25 -23 -21 3 -35 0 -35 -7 0 -6 19 -11 44
-11 l45 0 -10 30 c-6 17 -15 30 -20 30 -6 0 -5 -8 1 -19z"/>
<path d="M1860 593 c1 -13 29 -59 30 -48 0 21 -13 55 -21 55 -5 0 -9 -3 -9 -7z"/>
</g>
</svg>
